<svg width="78" height="30" fill="none" xmlns="http://www.w3.org/2000/svg"><path d="M2.2 29.4c-.533 0-.92-.16-1.16-.48-.24-.32-.36-.733-.36-1.24 0-.667.293-1.493.88-2.48.56-.987 1.293-2.053 2.2-3.2.88-1.12 1.827-2.24 2.84-3.36a560.64 560.64 0 0 1 2.8-3.08c.88-.96 1.587-1.733 2.12-2.32l.12-1.04c.053-.293.08-.64.08-1.04.027-.4.04-.693.04-.88a24.16 24.16 0 0 1-1.28 1.88c-.533.693-1.067 1.267-1.6 1.72-.107.08-.2.12-.28.12-.133 0-.213-.093-.24-.28 0-.187.027-.32.08-.4.667-.72 1.28-1.48 1.84-2.28.56-.827.84-1.84.84-3.04 0-.267-.093-.453-.28-.56-.16-.107-.24-.227-.24-.36 0-.213.16-.36.48-.44.347-.107.6-.16.76-.16.827 0 1.373.24 1.64.72.293.453.44 1.013.44 1.68 0 .48-.04.987-.12 1.52a18.25 18.25 0 0 1-.28 1.48c.373-.507.853-1.133 1.44-1.88.587-.747 1.24-1.48 1.96-2.2.747-.72 1.493-1.32 2.24-1.8.773-.507 1.493-.76 2.16-.76s1.133.2 1.4.6c.293.4.44.907.44 1.52 0 .853-.213 1.787-.64 2.8a14.01 14.01 0 0 1-1.6 2.88 15.99 15.99 0 0 1-2.08 2.48c-.747.72-1.467 1.227-2.16 1.52.08.027.16.04.24.04h.24c.853 0 1.8-.24 2.84-.72a19.011 19.011 0 0 0 3.12-1.88c1.013-.747 1.88-1.507 2.6-2.28.133-.133.293-.28.48-.44.213-.16.373-.133.48.08v.08c.027 0 .04.013.04.04 0 .107-.067.24-.2.4a7.79 7.79 0 0 1-.48.52 37.13 37.13 0 0 1-3.16 2.76 12.643 12.643 0 0 1-3.32 1.92c-1.173.48-2.493.72-3.96.72-.507 0-1.013-.04-1.52-.12a30.33 30.33 0 0 1-1.52-.28c-.32.64-.773 1.44-1.36 2.4-.56.987-1.2 2-1.92 3.04A28.923 28.923 0 0 1 7 26.28c-.827.933-1.64 1.68-2.44 2.24-.827.587-1.613.88-2.36.88Zm12.96-12.6c.613-.293 1.227-.773 1.84-1.44a12.464 12.464 0 0 0 1.72-2.28c.533-.853.947-1.707 1.24-2.56.32-.88.48-1.653.48-2.32 0-.213-.027-.427-.08-.64-.053-.24-.213-.36-.48-.36-.453 0-.947.227-1.48.68-.533.427-1.067.987-1.6 1.68a26.697 26.697 0 0 0-1.52 2.2 49.054 49.054 0 0 0-1.2 2.16c-.347.667-.6 1.2-.76 1.6.8.187 1.413.613 1.84 1.28ZM3 27.52c.693 0 1.373-.227 2.04-.68a8.58 8.58 0 0 0 1.8-1.64c.533-.64 1-1.293 1.4-1.96.4-.64.72-1.173.96-1.6.48-.88.92-1.853 1.32-2.92s.653-2.093.76-3.08c-.213.267-.64.76-1.28 1.48-.613.747-1.32 1.6-2.12 2.56a82.91 82.91 0 0 0-2.32 3 30.86 30.86 0 0 0-1.84 2.76c-.507.853-.76 1.507-.76 1.96l.04.12Zm21.57-10c-.612 0-1.106-.16-1.48-.48-.346-.293-.52-.76-.52-1.4 0-1.013.254-1.973.76-2.88a20.699 20.699 0 0 1 1.68-2.52c-.026-.133-.052-.267-.08-.4V9.4c0-.773.2-1.493.6-2.16a4.95 4.95 0 0 1 1.64-1.6c.694-.427 1.414-.64 2.16-.64.934 0 1.628.267 2.08.8.48.507.72 1.227.72 2.16 0 .987-.24 2-.72 3.04a24.166 24.166 0 0 1-1.44 2.76c.134.08.334.16.6.24.294.08.548.12.76.12.934 0 1.734-.16 2.4-.48.694-.347 1.508-.947 2.44-1.8.134-.133.24-.2.32-.2.108 0 .16.093.16.28 0 .213-.092.427-.28.64-.586.72-1.36 1.307-2.32 1.76-.96.453-1.892.68-2.8.68-.32 0-.64-.027-.96-.08a5.172 5.172 0 0 1-.92-.24 10.591 10.591 0 0 1-2.08 2c-.8.56-1.706.84-2.72.84Zm4.32-4.28c.32-.64.6-1.373.84-2.2.24-.827.388-1.667.44-2.52.054-.453-.052-.92-.32-1.4-.24-.48-.666-.72-1.28-.72-.586 0-1.08.213-1.48.64-.372.427-.6.987-.68 1.68.188-.133.428-.253.72-.36.32-.107.588-.16.8-.16.348 0 .628.093.84.28.214.16.32.347.32.56 0 .267-.172.453-.52.56-.32.107-.666.307-1.04.6-.346.293-.6.56-.76.8.214.427.52.84.92 1.24s.8.733 1.2 1Zm-3.36 3.12c.268 0 .6-.133 1-.4a9.54 9.54 0 0 0 1.12-.96c.374-.347.64-.627.8-.84-.372-.213-.826-.56-1.36-1.04a16.23 16.23 0 0 1-1.2-1.24c-.16.187-.332.507-.52.96-.186.427-.346.88-.48 1.36-.132.48-.2.88-.2 1.2 0 .64.28.96.84.96Zm11.992 1.6c-.853 0-1.786-.187-2.8-.56a7.151 7.151 0 0 1-2.56-1.64c-.693-.72-1.04-1.587-1.04-2.6 0-.347.067-.667.2-.96.16-.293.454-.44.88-.44.187 0 .413.08.68.24.267.133.467.267.6.4.614-.56 1.24-1.253 1.88-2.08.64-.853 1.294-1.707 1.96-2.56a16.76 16.76 0 0 1 2.12-2.2c.747-.64 1.533-1.027 2.36-1.16.08-.027.227-.04.44-.04.534 0 1.04.12 1.52.36.507.24.694.627.56 1.16-.053.24-.306.373-.76.4-.426.027-.92.04-1.48.04-.533 0-1 .093-1.4.28-.4.187-.6.573-.6 1.16 0 .213.12.547.36 1 .24.453.507.987.8 1.6.294.587.534 1.213.72 1.88.187.667.24 1.32.16 1.96.294.027.733-.013 1.32-.12.614-.133 1.28-.373 2-.72.747-.373 1.44-.907 2.08-1.6.08-.08.16-.12.24-.12.133 0 .227.067.28.2a.348.348 0 0 1-.04.36c-.267.347-.627.733-1.08 1.16a5.594 5.594 0 0 1-1.56 1.08c-.72.347-1.4.587-2.04.72-.64.107-1.08.147-1.32.12-.267.933-.853 1.613-1.76 2.04-.906.427-1.813.64-2.72.64Zm2.4-3.8v-.12c0-.48-.12-1.067-.36-1.76-.24-.693-.493-1.4-.76-2.12-.267-.747-.453-1.4-.56-1.96a43.79 43.79 0 0 1-1.96 2.36 39.837 39.837 0 0 1-2.08 2.24 38.11 38.11 0 0 0 2.8.92c.96.24 1.933.387 2.92.44Zm-2.64 2.64c.454 0 .92-.133 1.4-.4.48-.267.893-.693 1.24-1.28a21.869 21.869 0 0 1-3.36-.36c-1.173-.24-2.226-.627-3.16-1.16.053 1.173.44 2 1.16 2.48.747.48 1.654.72 2.72.72Zm10.64.44c-1.066 0-1.853-.28-2.36-.84-.506-.56-.76-1.347-.76-2.36 0-.933.214-1.96.64-3.08.427-1.147.894-2.093 1.4-2.84-.24.027-.493.067-.76.12-.24.027-.493.04-.76.04a3.22 3.22 0 0 1-1.16-.2c-.32-.16-.48-.453-.48-.88 0-.213.094-.36.28-.44.187-.08.374-.107.56-.08l3 .16c.32-.56.707-1.213 1.16-1.96.48-.773 1-1.52 1.56-2.24.587-.72 1.214-1.307 1.88-1.76.667-.48 1.36-.72 2.08-.72.16 0 .374.027.64.08.294.027.48.16.56.4a.44.44 0 0 1 .04.2c0 .16-.066.307-.2.44a4.872 4.872 0 0 0-.4.36 72.64 72.64 0 0 0-2.48 2.52 30.263 30.263 0 0 0-2.2 2.76c.534.027 1.054.04 1.56.04.534-.027 1.054-.04 1.56-.04.267 0 .52.027.76.08.267.053.414.187.44.4 0 .16-.213.28-.64.36-.426.08-.933.147-1.52.2-.586.027-1.146.053-1.68.08h-1.08c-.32.48-.68 1.093-1.08 1.84a24.628 24.628 0 0 0-1 2.28c-.266.773-.4 1.453-.4 2.04 0 1.307.56 1.96 1.68 1.96.774 0 1.534-.173 2.28-.52a11.497 11.497 0 0 0 2.12-1.28c.694-.507 1.294-1 1.8-1.48.507-.48.88-.84 1.12-1.08.107-.107.2-.16.28-.16.107 0 .16.08.16.24 0 .267-.08.48-.24.64a35.254 35.254 0 0 1-2.52 2.28 13.888 13.888 0 0 1-2.84 1.76 6.95 6.95 0 0 1-3 .68ZM64.255 6.36c-.4 0-.747-.133-1.04-.4-.267-.293-.4-.64-.4-1.04s.133-.747.4-1.04c.293-.293.64-.44 1.04-.44s.747.147 1.04.44c.293.293.44.64.44 1.04s-.147.747-.44 1.04c-.293.267-.64.4-1.04.4Zm-2.92 11.32c-.933 0-1.72-.24-2.36-.72-.613-.507-.853-1.333-.72-2.48.053-.373.187-.893.4-1.56.213-.693.48-1.387.8-2.08.347-.72.72-1.333 1.12-1.84.4-.507.8-.76 1.2-.76.32 0 .627.107.92.32.293.187.44.453.44.8 0 .187-.133.453-.4.8-.267.32-.587.733-.96 1.24a8.749 8.749 0 0 0-.92 1.64 4.585 4.585 0 0 0-.4 1.92c0 .64.133 1.08.4 1.32.293.213.64.32 1.04.32.507 0 1.053-.133 1.64-.4a12.514 12.514 0 0 0 1.76-1.08c.347-.24.853-.68 1.52-1.32a42.609 42.609 0 0 0 2.4-2.44c.053-.053.107-.08.16-.08.213 0 .32.147.32.44 0 .08-.16.307-.48.68-.32.347-.707.747-1.16 1.2-.427.453-.84.88-1.24 1.28-.4.373-.693.627-.88.76-.667.507-1.387.973-2.16 1.4-.747.427-1.56.64-2.44.64Zm7.97-.44c-1.066 0-1.853-.28-2.36-.84-.506-.56-.76-1.347-.76-2.36 0-.933.214-1.96.64-3.08.427-1.147.894-2.093 1.4-2.84-.24.027-.493.067-.76.12-.24.027-.493.04-.76.04a3.22 3.22 0 0 1-1.16-.2c-.32-.16-.48-.453-.48-.88 0-.213.094-.36.28-.44.187-.08.374-.107.56-.08l3 .16c.32-.56.707-1.213 1.16-1.96.48-.773 1-1.52 1.56-2.24.587-.72 1.214-1.307 1.88-1.76.667-.48 1.36-.72 2.08-.72.16 0 .374.027.64.08.294.027.48.16.56.4a.44.44 0 0 1 .04.2c0 .16-.066.307-.2.44a4.872 4.872 0 0 0-.4.36 72.64 72.64 0 0 0-2.48 2.52 30.263 30.263 0 0 0-2.2 2.76c.534.027 1.054.04 1.56.04.534-.027 1.054-.04 1.56-.04.267 0 .52.027.76.08.267.053.414.187.44.4 0 .16-.213.28-.64.36-.426.08-.933.147-1.52.2-.586.027-1.146.053-1.68.08h-1.08c-.32.48-.68 1.093-1.08 1.84a24.628 24.628 0 0 0-1 2.28c-.266.773-.4 1.453-.4 2.04 0 1.307.56 1.96 1.68 1.96.774 0 1.534-.173 2.28-.52a11.497 11.497 0 0 0 2.12-1.28c.694-.507 1.294-1 1.8-1.48.507-.48.88-.84 1.12-1.08.107-.107.2-.16.28-.16.107 0 .16.08.16.24 0 .267-.08.48-.24.64a35.254 35.254 0 0 1-2.52 2.28 13.888 13.888 0 0 1-2.84 1.76 6.95 6.95 0 0 1-3 .68Z" fill="#04C1C1"/></svg>