<svg width="78" height="30" viewBox="0 0 78 30" fill="none" xmlns="http://www.w3.org/2000/svg">
<path d="M2.2 29.4C1.66667 29.4 1.28 29.24 1.04 28.92C0.8 28.6 0.68 28.1867 0.68 27.68C0.68 27.0133 0.973333 26.1867 1.56 25.2C2.12 24.2133 2.85333 23.1467 3.76 22C4.64 20.88 5.58667 19.76 6.6 18.64C7.58667 17.5467 8.52 16.52 9.4 15.56C10.28 14.6 10.9867 13.8267 11.52 13.24L11.64 12.2C11.6933 11.9067 11.72 11.56 11.72 11.16C11.7467 10.76 11.76 10.4667 11.76 10.28C11.44 10.8133 11.0133 11.44 10.48 12.16C9.94667 12.8533 9.41333 13.4267 8.88 13.88C8.77333 13.96 8.68 14 8.6 14C8.46667 14 8.38667 13.9067 8.36 13.72C8.36 13.5333 8.38667 13.4 8.44 13.32C9.10667 12.6 9.72 11.84 10.28 11.04C10.84 10.2133 11.12 9.2 11.12 8C11.12 7.73333 11.0267 7.54667 10.84 7.44C10.68 7.33333 10.6 7.21333 10.6 7.08C10.6 6.86667 10.76 6.72 11.08 6.64C11.4267 6.53333 11.68 6.48 11.84 6.48C12.6667 6.48 13.2133 6.72 13.48 7.2C13.7733 7.65333 13.92 8.21333 13.92 8.88C13.92 9.36 13.88 9.86667 13.8 10.4C13.72 10.9333 13.6267 11.4267 13.52 11.88C13.8933 11.3733 14.3733 10.7467 14.96 10C15.5467 9.25333 16.2 8.52 16.92 7.8C17.6667 7.08 18.4133 6.48 19.16 6C19.9333 5.49333 20.6533 5.24 21.32 5.24C21.9867 5.24 22.4533 5.44 22.72 5.84C23.0133 6.24 23.16 6.74667 23.16 7.36C23.16 8.21333 22.9467 9.14667 22.52 10.16C22.12 11.1467 21.5867 12.1067 20.92 13.04C20.28 13.9733 19.5867 14.8 18.84 15.52C18.0933 16.24 17.3733 16.7467 16.68 17.04C16.76 17.0667 16.84 17.08 16.92 17.08C17 17.08 17.08 17.08 17.16 17.08C18.0133 17.08 18.96 16.84 20 16.36C21.0667 15.8533 22.1067 15.2267 23.12 14.48C24.1333 13.7333 25 12.9733 25.72 12.2C25.8533 12.0667 26.0133 11.92 26.2 11.76C26.4133 11.6 26.5733 11.6267 26.68 11.84C26.68 11.8667 26.68 11.8933 26.68 11.92C26.7067 11.92 26.72 11.9333 26.72 11.96C26.72 12.0667 26.6533 12.2 26.52 12.36C26.3867 12.52 26.2267 12.6933 26.04 12.88C25 13.8933 23.9467 14.8133 22.88 15.64C21.84 16.4667 20.7333 17.1067 19.56 17.56C18.3867 18.04 17.0667 18.28 15.6 18.28C15.0933 18.28 14.5867 18.24 14.08 18.16C13.5733 18.08 13.0667 17.9867 12.56 17.88C12.24 18.52 11.7867 19.32 11.2 20.28C10.64 21.2667 10 22.28 9.28 23.32C8.56 24.3867 7.8 25.3733 7 26.28C6.17333 27.2133 5.36 27.96 4.56 28.52C3.73333 29.1067 2.94667 29.4 2.2 29.4ZM15.16 16.8C15.7733 16.5067 16.3867 16.0267 17 15.36C17.64 14.6933 18.2133 13.9333 18.72 13.08C19.2533 12.2267 19.6667 11.3733 19.96 10.52C20.28 9.64 20.44 8.86667 20.44 8.2C20.44 7.98667 20.4133 7.77333 20.36 7.56C20.3067 7.32 20.1467 7.2 19.88 7.2C19.4267 7.2 18.9333 7.42667 18.4 7.88C17.8667 8.30667 17.3333 8.86667 16.8 9.56C16.2667 10.2533 15.76 10.9867 15.28 11.76C14.8267 12.5333 14.4267 13.2533 14.08 13.92C13.7333 14.5867 13.48 15.12 13.32 15.52C14.12 15.7067 14.7333 16.1333 15.16 16.8ZM3 27.52C3.69333 27.52 4.37333 27.2933 5.04 26.84C5.68 26.4133 6.28 25.8667 6.84 25.2C7.37333 24.56 7.84 23.9067 8.24 23.24C8.64 22.6 8.96 22.0667 9.2 21.64C9.68 20.76 10.12 19.7867 10.52 18.72C10.92 17.6533 11.1733 16.6267 11.28 15.64C11.0667 15.9067 10.64 16.4 10 17.12C9.38667 17.8667 8.68 18.72 7.88 19.68C7.08 20.6667 6.30667 21.6667 5.56 22.68C4.81333 23.6933 4.2 24.6133 3.72 25.44C3.21333 26.2933 2.96 26.9467 2.96 27.4L3 27.52ZM24.5709 17.52C23.9576 17.52 23.4643 17.36 23.0909 17.04C22.7443 16.7467 22.5709 16.28 22.5709 15.64C22.5709 14.6267 22.8243 13.6667 23.3309 12.76C23.8643 11.8267 24.4243 10.9867 25.0109 10.24C24.9843 10.1067 24.9576 9.97333 24.9309 9.84C24.9309 9.68 24.9309 9.53333 24.9309 9.4C24.9309 8.62667 25.1309 7.90667 25.5309 7.24C25.9576 6.57333 26.5043 6.04 27.1709 5.64C27.8643 5.21333 28.5843 5 29.3309 5C30.2643 5 30.9576 5.26667 31.4109 5.8C31.8909 6.30667 32.1309 7.02667 32.1309 7.96C32.1309 8.94667 31.8909 9.96 31.4109 11C30.9576 12.0133 30.4776 12.9333 29.9709 13.76C30.1043 13.84 30.3043 13.92 30.5709 14C30.8643 14.08 31.1176 14.12 31.3309 14.12C32.2643 14.12 33.0643 13.96 33.7309 13.64C34.4243 13.2933 35.2376 12.6933 36.1709 11.84C36.3043 11.7067 36.4109 11.64 36.4909 11.64C36.5976 11.64 36.6509 11.7333 36.6509 11.92C36.6509 12.1333 36.5576 12.3467 36.3709 12.56C35.7843 13.28 35.0109 13.8667 34.0509 14.32C33.0909 14.7733 32.1576 15 31.2509 15C30.9309 15 30.6109 14.9733 30.2909 14.92C29.9709 14.8667 29.6643 14.7867 29.3709 14.68C28.7843 15.4267 28.0909 16.0933 27.2909 16.68C26.4909 17.24 25.5843 17.52 24.5709 17.52ZM28.8909 13.24C29.2109 12.6 29.4909 11.8667 29.7309 11.04C29.9709 10.2133 30.1176 9.37333 30.1709 8.52C30.2243 8.06667 30.1176 7.6 29.8509 7.12C29.6109 6.64 29.1843 6.4 28.5709 6.4C27.9843 6.4 27.4909 6.61333 27.0909 7.04C26.7176 7.46667 26.4909 8.02667 26.4109 8.72C26.5976 8.58667 26.8376 8.46667 27.1309 8.36C27.4509 8.25333 27.7176 8.2 27.9309 8.2C28.2776 8.2 28.5576 8.29333 28.7709 8.48C28.9843 8.64 29.0909 8.82667 29.0909 9.04C29.0909 9.30667 28.9176 9.49333 28.5709 9.6C28.2509 9.70667 27.9043 9.90667 27.5309 10.2C27.1843 10.4933 26.9309 10.76 26.7709 11C26.9843 11.4267 27.2909 11.84 27.6909 12.24C28.0909 12.64 28.4909 12.9733 28.8909 13.24ZM25.5309 16.36C25.7976 16.36 26.1309 16.2267 26.5309 15.96C26.9309 15.6667 27.3043 15.3467 27.6509 15C28.0243 14.6533 28.2909 14.3733 28.4509 14.16C28.0776 13.9467 27.6243 13.6 27.0909 13.12C26.5843 12.64 26.1843 12.2267 25.8909 11.88C25.7309 12.0667 25.5576 12.3867 25.3709 12.84C25.1843 13.2667 25.0243 13.72 24.8909 14.2C24.7576 14.68 24.6909 15.08 24.6909 15.4C24.6909 16.04 24.9709 16.36 25.5309 16.36ZM37.5222 17.96C36.6689 17.96 35.7355 17.7733 34.7222 17.4C33.7355 17.0267 32.8822 16.48 32.1622 15.76C31.4689 15.04 31.1222 14.1733 31.1222 13.16C31.1222 12.8133 31.1889 12.4933 31.3222 12.2C31.4822 11.9067 31.7755 11.76 32.2022 11.76C32.3889 11.76 32.6155 11.84 32.8822 12C33.1489 12.1333 33.3489 12.2667 33.4822 12.4C34.0955 11.84 34.7222 11.1467 35.3622 10.32C36.0022 9.46667 36.6555 8.61333 37.3222 7.76C38.0155 6.90667 38.7222 6.17333 39.4422 5.56C40.1889 4.92 40.9755 4.53333 41.8022 4.4C41.8822 4.37333 42.0289 4.36 42.2422 4.36C42.7755 4.36 43.2822 4.48 43.7622 4.72C44.2689 4.96 44.4555 5.34667 44.3222 5.88C44.2689 6.12 44.0155 6.25333 43.5622 6.28C43.1355 6.30667 42.6422 6.32 42.0822 6.32C41.5489 6.32 41.0822 6.41333 40.6822 6.6C40.2822 6.78667 40.0822 7.17333 40.0822 7.76C40.0822 7.97333 40.2022 8.30667 40.4422 8.76C40.6822 9.21333 40.9489 9.74667 41.2422 10.36C41.5355 10.9467 41.7755 11.5733 41.9622 12.24C42.1489 12.9067 42.2022 13.56 42.1222 14.2C42.4155 14.2267 42.8555 14.1867 43.4422 14.08C44.0555 13.9467 44.7222 13.7067 45.4422 13.36C46.1889 12.9867 46.8822 12.4533 47.5222 11.76C47.6022 11.68 47.6822 11.64 47.7622 11.64C47.8955 11.64 47.9889 11.7067 48.0422 11.84C48.0955 11.9733 48.0822 12.0933 48.0022 12.2C47.7355 12.5467 47.3755 12.9333 46.9222 13.36C46.4955 13.7867 45.9755 14.1467 45.3622 14.44C44.6422 14.7867 43.9622 15.0267 43.3222 15.16C42.6822 15.2667 42.2422 15.3067 42.0022 15.28C41.7355 16.2133 41.1489 16.8933 40.2422 17.32C39.3355 17.7467 38.4289 17.96 37.5222 17.96ZM39.9222 14.16V14.04C39.9222 13.56 39.8022 12.9733 39.5622 12.28C39.3222 11.5867 39.0689 10.88 38.8022 10.16C38.5355 9.41333 38.3489 8.76 38.2422 8.2C37.6022 9.02667 36.9489 9.81333 36.2822 10.56C35.6422 11.3067 34.9489 12.0533 34.2022 12.8C35.1355 13.1467 36.0689 13.4533 37.0022 13.72C37.9622 13.96 38.9355 14.1067 39.9222 14.16ZM37.2822 16.8C37.7355 16.8 38.2022 16.6667 38.6822 16.4C39.1622 16.1333 39.5755 15.7067 39.9222 15.12C38.8555 15.0933 37.7355 14.9733 36.5622 14.76C35.3889 14.52 34.3355 14.1333 33.4022 13.6C33.4555 14.7733 33.8422 15.6 34.5622 16.08C35.3089 16.56 36.2155 16.8 37.2822 16.8ZM47.9225 17.24C46.8558 17.24 46.0692 16.96 45.5625 16.4C45.0558 15.84 44.8025 15.0533 44.8025 14.04C44.8025 13.1067 45.0158 12.08 45.4425 10.96C45.8692 9.81333 46.3358 8.86667 46.8425 8.12C46.6025 8.14667 46.3492 8.18667 46.0825 8.24C45.8425 8.26667 45.5892 8.28 45.3225 8.28C44.8958 8.28 44.5092 8.21333 44.1625 8.08C43.8425 7.92 43.6825 7.62667 43.6825 7.2C43.6825 6.98667 43.7758 6.84 43.9625 6.76C44.1492 6.68 44.3358 6.65333 44.5225 6.68L47.5225 6.84C47.8425 6.28 48.2292 5.62667 48.6825 4.88C49.1625 4.10667 49.6825 3.36 50.2425 2.64C50.8292 1.92 51.4558 1.33333 52.1225 0.879999C52.7892 0.399999 53.4825 0.159999 54.2025 0.159999C54.3625 0.159999 54.5758 0.186665 54.8425 0.239999C55.1358 0.266666 55.3225 0.4 55.4025 0.64C55.4292 0.693333 55.4425 0.76 55.4425 0.839999C55.4425 0.999999 55.3758 1.14667 55.2425 1.28C55.1092 1.38667 54.9758 1.50667 54.8425 1.64C53.9625 2.49333 53.1358 3.33333 52.3625 4.16C51.6158 4.98667 50.8825 5.90667 50.1625 6.92C50.6958 6.94667 51.2158 6.96 51.7225 6.96C52.2558 6.93333 52.7758 6.92 53.2825 6.92C53.5492 6.92 53.8025 6.94667 54.0425 7C54.3092 7.05333 54.4558 7.18667 54.4825 7.4C54.4825 7.56 54.2692 7.68 53.8425 7.76C53.4158 7.84 52.9092 7.90667 52.3225 7.96C51.7358 7.98667 51.1758 8.01333 50.6425 8.04C50.1092 8.04 49.7492 8.04 49.5625 8.04C49.2425 8.52 48.8825 9.13333 48.4825 9.88C48.1092 10.6267 47.7758 11.3867 47.4825 12.16C47.2158 12.9333 47.0825 13.6133 47.0825 14.2C47.0825 15.5067 47.6425 16.16 48.7625 16.16C49.5358 16.16 50.2958 15.9867 51.0425 15.64C51.7892 15.2933 52.4958 14.8667 53.1625 14.36C53.8558 13.8533 54.4558 13.36 54.9625 12.88C55.4692 12.4 55.8425 12.04 56.0825 11.8C56.1892 11.6933 56.2825 11.64 56.3625 11.64C56.4692 11.64 56.5225 11.72 56.5225 11.88C56.5225 12.1467 56.4425 12.36 56.2825 12.52C55.5092 13.2933 54.6692 14.0533 53.7625 14.8C52.8558 15.52 51.9092 16.1067 50.9225 16.56C49.9625 17.0133 48.9625 17.24 47.9225 17.24ZM64.255 6.36C63.855 6.36 63.5083 6.22667 63.215 5.96C62.9483 5.66667 62.815 5.32 62.815 4.92C62.815 4.52 62.9483 4.17333 63.215 3.88C63.5083 3.58667 63.855 3.44 64.255 3.44C64.655 3.44 65.0017 3.58667 65.295 3.88C65.5883 4.17333 65.735 4.52 65.735 4.92C65.735 5.32 65.5883 5.66667 65.295 5.96C65.0017 6.22667 64.655 6.36 64.255 6.36ZM61.335 17.68C60.4017 17.68 59.615 17.44 58.975 16.96C58.3617 16.4533 58.1217 15.6267 58.255 14.48C58.3083 14.1067 58.4417 13.5867 58.655 12.92C58.8683 12.2267 59.135 11.5333 59.455 10.84C59.8017 10.12 60.175 9.50667 60.575 9C60.975 8.49333 61.375 8.24 61.775 8.24C62.095 8.24 62.4017 8.34667 62.695 8.56C62.9883 8.74667 63.135 9.01333 63.135 9.36C63.135 9.54667 63.0017 9.81333 62.735 10.16C62.4683 10.48 62.1483 10.8933 61.775 11.4C61.4283 11.88 61.1217 12.4267 60.855 13.04C60.5883 13.6267 60.455 14.2667 60.455 14.96C60.455 15.6 60.5883 16.04 60.855 16.28C61.1483 16.4933 61.495 16.6 61.895 16.6C62.4017 16.6 62.9483 16.4667 63.535 16.2C64.1217 15.9067 64.7083 15.5467 65.295 15.12C65.6417 14.88 66.1483 14.44 66.815 13.8C67.5083 13.16 68.3083 12.3467 69.215 11.36C69.2683 11.3067 69.3217 11.28 69.375 11.28C69.5883 11.28 69.695 11.4267 69.695 11.72C69.695 11.8 69.535 12.0267 69.215 12.4C68.895 12.7467 68.5083 13.1467 68.055 13.6C67.6283 14.0533 67.215 14.48 66.815 14.88C66.415 15.2533 66.1217 15.5067 65.935 15.64C65.2683 16.1467 64.5483 16.6133 63.775 17.04C63.0283 17.4667 62.215 17.68 61.335 17.68ZM69.3053 17.24C68.2386 17.24 67.452 16.96 66.9453 16.4C66.4386 15.84 66.1853 15.0533 66.1853 14.04C66.1853 13.1067 66.3986 12.08 66.8253 10.96C67.252 9.81333 67.7186 8.86667 68.2253 8.12C67.9853 8.14667 67.732 8.18667 67.4653 8.24C67.2253 8.26667 66.972 8.28 66.7053 8.28C66.2786 8.28 65.892 8.21333 65.5453 8.08C65.2253 7.92 65.0653 7.62667 65.0653 7.2C65.0653 6.98667 65.1586 6.84 65.3453 6.76C65.532 6.68 65.7186 6.65333 65.9053 6.68L68.9053 6.84C69.2253 6.28 69.612 5.62667 70.0653 4.88C70.5453 4.10667 71.0653 3.36 71.6253 2.64C72.212 1.92 72.8386 1.33333 73.5053 0.879999C74.172 0.399999 74.8653 0.159999 75.5853 0.159999C75.7453 0.159999 75.9586 0.186665 76.2253 0.239999C76.5186 0.266666 76.7053 0.4 76.7853 0.64C76.812 0.693333 76.8253 0.76 76.8253 0.839999C76.8253 0.999999 76.7586 1.14667 76.6253 1.28C76.492 1.38667 76.3586 1.50667 76.2253 1.64C75.3453 2.49333 74.5186 3.33333 73.7453 4.16C72.9986 4.98667 72.2653 5.90667 71.5453 6.92C72.0786 6.94667 72.5986 6.96 73.1053 6.96C73.6386 6.93333 74.1586 6.92 74.6653 6.92C74.932 6.92 75.1853 6.94667 75.4253 7C75.692 7.05333 75.8386 7.18667 75.8653 7.4C75.8653 7.56 75.652 7.68 75.2253 7.76C74.7986 7.84 74.292 7.90667 73.7053 7.96C73.1186 7.98667 72.5586 8.01333 72.0253 8.04C71.492 8.04 71.132 8.04 70.9453 8.04C70.6253 8.52 70.2653 9.13333 69.8653 9.88C69.492 10.6267 69.1586 11.3867 68.8653 12.16C68.5986 12.9333 68.4653 13.6133 68.4653 14.2C68.4653 15.5067 69.0253 16.16 70.1453 16.16C70.9186 16.16 71.6786 15.9867 72.4253 15.64C73.172 15.2933 73.8786 14.8667 74.5453 14.36C75.2386 13.8533 75.8386 13.36 76.3453 12.88C76.852 12.4 77.2253 12.04 77.4653 11.8C77.572 11.6933 77.6653 11.64 77.7453 11.64C77.852 11.64 77.9053 11.72 77.9053 11.88C77.9053 12.1467 77.8253 12.36 77.6653 12.52C76.892 13.2933 76.052 14.0533 75.1453 14.8C74.2386 15.52 73.292 16.1067 72.3053 16.56C71.3453 17.0133 70.3453 17.24 69.3053 17.24Z" fill="#04C1C1"/>
</svg>
